<svg height="592" viewBox="0 0 926 592" width="926" xmlns="http://www.w3.org/2000/svg" xmlns:xlink="http://www.w3.org/1999/xlink"><linearGradient id="a" x1="100%" x2="5.226711%" y1="24.401175%" y2="65.756505%"><stop offset="0" stop-color="#4A6FD6" stop-opacity=".5"/><stop offset="1" stop-color="#4A6FD6"/></linearGradient><path d="m128.856842 278.025439c44.622627-35.914161 93.141628-44.338211 145.466625-73.405611 133.847575-74.354538 76.820387-68.277083 203.598476-116.9340305 1017.953497-390.6866705-236.089533 96.9665055 266.292686-86.52149531 52.285106-19.09639539 119.859841-69.29951049 181.168999-39.93397829 4.401183 2.1080547-61.144104 53.7909796-54.047392 79.2433907 2.781294 9.9751315 72.805217-7.4507038 81.975914 7.9727748 2.18327 3.6718721-10.650807 45.8120519-12.004868 47.3140528-6.341278 7.0341058-30.730959 8.8631998-23.875923 15.3974608 9.430915 8.989605 26.261338-3.274811 39.073168-.911356 2.661095.490904 1.028587 5.616054 0 8.119357-3.877128 9.435875-19.161202 17.954387-14.426232 26.990168 6.050652 11.546508 65.825065-75.0137833-6.282802 14.212061-2.865648 3.545936-10.752252 10.453715-6.480334 12.045199 12.891048 4.802505 27.599294-.71802 41.258767.911357 1.372691.163742 1.082734 2.768309.681805 4.091544l-1.019522 23.070699c-3.547442 11.708067-11.309488 21.731762-15.981002 33.038261-6.869854 16.627158 16.229793-.621281 7.990501 16.359802-7.324108 15.094902-17.598669 28.6193-25.118465 43.617643-.970194 1.935067-1.80218 5.285891-.006372 6.49421 26.903036 18.101858-3.293228-59.035277-8.232637 30.418909-.315147 5.707402 20.675387-5.252799 17.127964-.771148-7.471231 9.43881-20.145861 13.351615-31.076295 18.392828-74.020884 34.139089-150.6783 62.590897-223.5811 99.057425-33.275775 16.644792-62.151092 40.979124-94.191058 59.894594-26.447119 15.613615-52.240829 33.269288-81.153924 43.624016-109.245754 39.124489-124.992469 22.063041-223.536496 75.15822-57.977914 31.238298 40.256253-51.545151-83.811053 41.189483-11.387999 8.512008-16.824078 22.989556-26.367379 33.528991-1.098673 1.213354-4.714651 2.551086-4.823612.91773-.2145-3.215422 2.01415-6.391125 4.307479-8.654699 13.360687-13.187332 29.666742-23.312469 42.220941-37.270013 10.337584-11.49315 18.310554-25.001838 25.902222-38.468161 7.919896-14.048544 30.131141-30.898523 20.492386-43.827955-21.846047-29.304301-88.481073 25.986889-106.533642 32.407322-2.541582.903918-1.235042-5.695302 0-8.093864 4.806137-9.33395 11.093435-17.881461 17.612237-26.110679 10.234692-12.92009 20.801527-25.663455 32.554601-37.219028 23.705888-23.30753 50.542956-43.344571 73.673184-67.223684 8.436331-8.709474 14.778835-19.355088 20.530617-30.030148 14.596103-27.089737 64.851368-64.364474 40.37943-83.016278-20.170975-15.373735-141.316449 81.849366-162.945049 85.221378-10.565665 1.647243 15.093854-32.708547 4.441291-31.776383-17.403954 1.522952-31.562844 50.540821-39.181492 34.816362-8.880001-18.327822 22.224074-34.34899 30.36263-53.017996 1.094527-2.510734-5.634446.430808-8.022362 1.771727-15.238635 8.557164-28.65257 20.359233-44.50212 27.723078-4.146696 1.926593-9.563852 1.267595-13.699822-.681924-7.97859-3.760764-14.765404-9.793268-21.237911-15.786221-25.8571056-23.941331 4.9117766-32.313844 8.965419-54.993664.647519-3.622821-7.7490944-.224983-10.800558-2.281578-2.7429469-1.848663-4.7071036-5.199432-5.1613284-8.476251-1.5796067-11.395427-.5310009-23.002719-.7965013-34.504079z" fill="url(#a)" fill-rule="evenodd" transform="matrix(.97437006 .22495105 -.22495105 .97437006 5.688839 -132.573121)"/></svg>