<svg height="426" viewBox="0 0 433 426" width="433" xmlns="http://www.w3.org/2000/svg"><g fill="none" fill-rule="evenodd"><path d="m30.8111468 15c-.0821092 0-.1642171.0006742-.2463153.0020225-8.2831542.1360362-14.8876984 6.9611386-14.7516622 15.2442928l5.7686008 351.2463157c.2689184 16.374267 13.6194798 29.507369 29.995955 29.507369h329.8445809c16.376475 0 29.727037-13.133102 29.995955-29.507369l5.768601-351.2463157c.001348-.0820982.002022-.164206.002022-.2463153 0-8.2842712-6.715728-15-15-15z" stroke="#4a6fd6" stroke-width="30"/><path d="m40.8221494 15c-1.4180099 0-2.8288562.2010702-4.1904098.5972063-7.9544433 2.3142994-12.5266833 10.6387601-10.2123839 18.5932034l42.4178086 145.7936063c3.1057299 10.674657 12.8873788 18.015984 24.0046562 18.015984h248.3186745c11.117278 0 20.898927-7.341327 24.004656-18.015984l42.417809-145.7936063c.396136-1.3615535.597206-2.7723999.597206-4.1904097 0-8.2842712-6.715728-15-15-15z" stroke="#4a6fd6" stroke-width="30"/><circle cx="216.5" cy="129" fill="#4a6fd6" r="24"/></g></svg>